<svg id="Layer_1" data-name="Layer 1" xmlns="http://www.w3.org/2000/svg" viewBox="0 0 512 512"><defs><style>.cls-1{fill:#f1f2f2;}.cls-2{fill:#4d4d4f;}</style></defs><title>XI-Logo</title><path class="cls-1" d="M111.62,436.71C50.07,436.71,0,380.21,0,310.76,0,251.3,36.7,201.34,85.88,188.19c7.55-33.35,35-58.14,67.65-58.14a64.22,64.22,0,0,1,11.4,1c29.61-35.31,70.88-55.78,114.35-55.78,64.88,0,122.8,45.49,146.66,112.88,49.72,12.92,86,62.65,86,122.59,0,69.45-50.07,126-111.62,126Z"/><path class="cls-2" d="M401,424.36H354.11a17.77,17.77,0,0,1-12.6-5.24l-60.93-61.25a17.77,17.77,0,0,1,25.2-25.07l55.72,56H401c35.14,0,63.73-35,63.73-78.06,0-21-6.77-40.72-19.06-55.51-11.61-14-26.9-21.93-43.06-22.44a17.77,17.77,0,0,1-16.73-13.62c-6.6-27.5-20.79-52.18-40-69.5s-42-26.51-66-26.51A94.12,94.12,0,0,0,230,137.61c-15.19,9.35-28.61,23.05-38.8,39.63a17.77,17.77,0,0,1-26.09,4.7,17.51,17.51,0,0,0-10.93-4c-11.83,0-21.82,13.18-21.82,28.77a36.41,36.41,0,0,0,.47,5.65,17.77,17.77,0,0,1-18.36,20.49c-.61,0-1.22-.07-1.82-.12l-.51,0c-35.09.08-63.61,35.06-63.61,78.06s28.59,78.06,63.73,78.06h32.66l83.87-83.87L151,226.11a17.77,17.77,0,1,1,25.31-25l90.13,91.4a17.77,17.77,0,0,1-.09,25L164.84,419.16a17.77,17.77,0,0,1-12.57,5.21h-40c-27.07,0-52.34-12.19-71.17-34.33C23,368.73,13,340.57,13,310.76s10-58,28.1-79.27c15.3-18,34.87-29.42,56.2-33.06,3.64-31.56,27.76-56,56.89-56a51.77,51.77,0,0,1,16.1,2.56,152.58,152.58,0,0,1,41.09-37.62,130.92,130.92,0,0,1,68.56-19.7c32.95,0,64,12.34,89.85,35.69,21.51,19.44,38,45.87,47.31,75.39,21.33,3.93,40.83,15.64,55.94,33.82,17.59,21.16,27.27,48.94,27.27,78.23,0,29.81-10,58-28.1,79.28C453.36,412.17,428.09,424.36,401,424.36Z"/><path class="cls-2" d="M293.18,282.18a17.77,17.77,0,0,1-12.61-30.3l50.78-51.1a17.77,17.77,0,0,1,25.21,25.05l-50.78,51.1A17.72,17.72,0,0,1,293.18,282.18Z"/><path class="cls-2" d="M489.43,425.78h-3.06a1,1,0,1,1,0-2.05h8.37a1,1,0,0,1,0,2.05h-3.08v9.54a1.12,1.12,0,0,1-2.23,0Z"/><path class="cls-2" d="M498,424.77a1.11,1.11,0,0,1,1.12-1.12h.23a1.17,1.17,0,0,1,1,.59l3.82,6,3.83-6a1.11,1.11,0,0,1,1-.58h.23a1.11,1.11,0,0,1,1.12,1.12v10.55a1.1,1.1,0,0,1-1.12,1.1,1.11,1.11,0,0,1-1.1-1.1v-7.56l-3.08,4.63a1,1,0,0,1-1.85,0l-3.06-4.59v7.54a1.08,1.08,0,0,1-1.1,1.08,1.06,1.06,0,0,1-1.08-1.08Z"/></svg>