<?xml version="1.0" encoding="UTF-8"?>
<svg width="508px" height="96px" viewBox="0 0 508 96" version="1.1" xmlns="http://www.w3.org/2000/svg" xmlns:xlink="http://www.w3.org/1999/xlink">
    <!-- Generator: Sketch 48.2 (47327) - http://www.bohemiancoding.com/sketch -->
    <title>xi2</title>
    <desc>Created with Sketch.</desc>
    <defs></defs>
    <g id="Page-1" stroke="none" stroke-width="1" fill="none" fill-rule="evenodd">
        <g id="xi2" fill="#4D4D4F" fill-rule="nonzero">
            <path d="M111.149653,95.8900935 L97.8073472,95.8900935 C96.4626623,95.8893138 95.1736706,95.3529547 94.2253588,94.3996016 L76.8923812,76.9784767 C75.0183223,74.984853 75.0700795,71.8621715 77.0091777,69.9317493 C78.948276,68.0013271 82.0711583,67.9635734 84.056358,69.8465534 L99.9068572,85.7771865 L111.125613,85.7771865 C121.118319,85.7771865 129.251917,75.8165341 129.251917,63.5720636 C129.251917,51.6481289 121.326667,41.7035033 111.622444,41.3989943 C109.344956,41.3286859 107.395837,39.7437959 106.862486,37.5285235 C103.008042,21.4456359 90.6113167,10.2188668 76.7240998,10.2188668 C66.8115278,10.2268801 57.387773,15.9484456 51.4738861,25.5645219 C50.7203176,26.7910223 49.4797143,27.6381989 48.063065,27.8936853 C46.6464157,28.1491718 45.1880268,27.7887465 44.0534805,26.9027592 C43.1770134,26.1802651 42.0800631,25.778804 40.9442825,25.7648568 C37.5786558,25.7648568 34.7419133,29.5151266 34.7419133,33.9465351 C34.7457255,34.4834844 34.7912719,35.019325 34.878141,35.5492145 C35.1100183,37.0460541 34.658654,38.5680086 33.6482106,39.6964146 C32.6377673,40.8248206 31.1746803,41.4408171 29.6614196,41.3749541 L29.1325354,41.3749541 L28.9722675,41.3749541 C19.0276418,41.3749541 10.9020573,51.3356065 10.9020573,63.580077 C10.9020573,75.8245475 19.0356552,85.7851999 29.0283612,85.7851999 L38.3078749,85.7851999 L62.1637576,61.9213038 L40.0547954,39.4837924 C38.0942206,37.4922377 38.1193346,34.2884038 40.1108892,32.3278289 C42.1024438,30.3672541 45.3062778,30.3923681 47.2668527,32.3839227 L72.9097229,58.3793824 C74.8664617,60.3509229 74.8664617,63.5317517 72.9097229,65.5032923 L44.0614939,94.3515213 C43.0940729,95.3505627 41.7578932,95.9070626 40.3673179,95.8900935 L29.0203478,95.8900935 C13.4503176,95.8900935 0.789150408,81.3938584 0.789150408,63.580077 C0.789150408,47.4170554 11.2065664,33.9946155 24.7652341,31.6386768 C25.7989623,22.6556588 32.65843,15.7000303 40.9442825,15.7000303 C42.4984303,15.7000392 44.0427726,15.9461602 45.5199321,16.4292494 C53.349021,6.14004771 64.7520848,0.13 76.708073,0.13 C94.2333722,0.13 109.843469,12.9514351 115.717289,31.7188107 C129.25993,34.1949504 139.380851,47.4491089 139.380851,63.5880904 C139.388864,81.3938584 126.719683,95.8900935 111.149653,95.8900935 Z M80.482383,55.4464791 C78.4437116,55.4420958 76.6070851,54.2138585 75.8243468,52.3314343 C75.0416085,50.4490101 75.4658856,48.2806575 76.9003946,46.8320774 L91.3245091,32.2957753 C93.3075459,30.4102048 96.430769,30.4442892 98.3721827,32.3726882 C100.313597,34.3010873 100.368688,37.4240102 98.4964993,39.4196852 L84.0723848,53.9559873 C83.1231291,54.9128217 81.8301995,55.4496183 80.482383,55.4464791 Z" id="Combined-Shape"></path>
            <path d="M198.9,40 L207.9,28.57 L199.36,17.8 C199.065242,17.4860992 198.888527,17.0796532 198.86,16.65 C198.881681,15.8372348 199.546946,15.1897109 200.36,15.19 C200.910272,15.2053971 201.416622,15.494204 201.71,15.96 L209.83,26.5 L217.83,16.07 C218.145794,15.5563783 218.688774,15.2253835 219.29,15.18 C220.060886,15.1963849 220.675643,15.8289604 220.67,16.6 C220.665175,16.9989382 220.515967,17.3826171 220.25,17.68 L211.67,28.53 L220.56,39.88 C220.86439,40.1752162 221.04344,40.5762882 221.06,41 C221.06,41.8284271 220.388427,42.5 219.56,42.5 C219.009728,42.4846029 218.503378,42.195796 218.21,41.73 L209.71,30.73 L201.32,41.66 C200.994961,42.1834329 200.43518,42.5155695 199.82,42.55 C199.060916,42.5176936 198.463924,41.8897469 198.47,41.13 C198.466189,40.7126718 198.619715,40.3092206 198.9,40 Z" id="Shape"></path>
            <path d="M225.76,16.15 C225.855751,15.2556095 226.610499,14.5773499 227.51,14.5773499 C228.409501,14.5773499 229.164249,15.2556095 229.26,16.15 L229.26,16.65 C229.164249,17.5443905 228.409501,18.2226501 227.51,18.2226501 C226.610499,18.2226501 225.855751,17.5443905 225.76,16.65 L225.76,16.15 Z M226.03,23.69 C226.024364,22.8747844 226.67493,22.2063946 227.49,22.19 C227.889466,22.1845643 228.274164,22.3408535 228.556655,22.623345 C228.839147,22.9058364 228.995436,23.2905337 228.99,23.69 L228.99,41 C229.003636,41.3948938 228.855527,41.7782494 228.579929,42.0613977 C228.304331,42.344546 227.925118,42.5029604 227.53,42.5 C227.125394,42.5137171 226.732831,42.3610931 226.443747,42.0776776 C226.154664,41.7942621 225.994297,41.4047978 226,41 L226.03,23.69 Z" id="Shape"></path>
            <path d="M242.11,28.89 L242.11,28.81 C242.11,21.19 247.8,14.88 255.73,14.88 C259.264662,14.7834146 262.703776,16.0346514 265.35,18.38 C265.724002,18.6817065 265.949918,19.1298952 265.97,19.61 C265.9381,20.4403557 265.260908,21.0999591 264.43,21.11 C264.069333,21.0950838 263.721248,20.973254 263.43,20.76 C261.356026,18.7607757 258.580561,17.6548983 255.7,17.68 C249.7,17.68 245.27,22.53 245.27,28.68 L245.27,28.76 C245.27,34.99 249.77,39.88 255.7,39.88 C258.701116,39.9270987 261.591144,38.7457997 263.7,36.61 C263.963359,36.3413205 264.323773,36.1899463 264.7,36.19 C265.495349,36.2159275 266.134072,36.8546513 266.16,37.65 C266.156855,38.0652544 265.974595,38.4589353 265.66,38.73 C263.006041,41.3627534 259.397525,42.8061599 255.66,42.73 C247.84,42.74 242.11,36.63 242.11,28.89 Z" id="Shape"></path>
            <path d="M270.7,15.5 C270.7,14.6715729 271.371573,14 272.2,14 C273.028427,14 273.7,14.6715729 273.7,15.5 L273.7,41 C273.713636,41.3948938 273.565527,41.7782494 273.289929,42.0613977 C273.014331,42.344546 272.635118,42.5029604 272.24,42.5 C271.840534,42.5054357 271.455836,42.3491465 271.173345,42.066655 C270.890853,41.7841636 270.734564,41.3994663 270.74,41 L270.7,15.5 Z" id="Shape"></path>
            <path d="M278.55,32.43 L278.55,32.35 C278.527909,26.6228073 283.152807,21.9620917 288.88,21.9400003 C294.607193,21.9179089 299.267908,26.5428073 299.29,32.27 L299.29,32.35 C299.306205,35.1174866 298.211241,37.77574 296.250543,39.7289188 C294.289845,41.6820975 291.627404,42.7668387 288.86,42.74 C286.11578,42.7725115 283.474459,41.6967256 281.533867,39.7561331 C279.593274,37.8155407 278.517489,35.1742196 278.55,32.43 Z M296.25,32.43 L296.25,32.35 C296.314562,30.335733 295.569007,28.3796437 294.180129,26.9193493 C292.791252,25.4590549 290.874972,24.6164347 288.86,24.58 C284.55,24.58 281.59,28.08 281.59,32.28 L281.59,32.36 C281.517153,34.3659198 282.255731,36.3165616 283.63886,37.7712001 C285.02199,39.2258386 286.932957,40.0617249 288.94,40.09 C290.93821,40.0837332 292.847496,39.2630636 294.22704,37.8174685 C295.606583,36.3718734 296.337126,34.42632 296.25,32.43 Z" id="Shape"></path>
            <path d="M320.91,41 C320.91,41.8063357 320.256336,42.46 319.45,42.46 C318.643664,42.46 317.99,41.8063357 317.99,41 L317.99,38.84 C316.619335,41.3014986 313.99653,42.799694 311.18,42.73 C306.37,42.73 303.56,39.5 303.56,34.73 L303.56,23.73 C303.546364,23.3351062 303.694473,22.9517506 303.970071,22.6686023 C304.245669,22.385454 304.624882,22.2270396 305.02,22.23 C305.848427,22.23 306.52,22.9015729 306.52,23.73 L306.52,34 C306.52,37.69 308.52,40 312.02,40 C313.663702,40.039537 315.24864,39.3878985 316.389183,38.2036349 C317.529725,37.0193714 318.121311,35.4110527 318.02,33.77 L318.02,23.7 C318.006364,23.3051062 318.154473,22.9217506 318.430071,22.6386023 C318.705669,22.355454 319.084882,22.1970396 319.48,22.2 C319.873385,22.202594 320.249317,22.3627566 320.523704,22.6446613 C320.798091,22.926566 320.948037,23.3066884 320.94,23.7 L320.91,41 Z" id="Shape"></path>
            <path d="M345.73,41 C345.73,41.8284271 345.058427,42.5 344.23,42.5 C343.401573,42.5 342.73,41.8284271 342.73,41 L342.73,38.31 C341.11,40.7 338.73,42.73 335.11,42.73 C330.34,42.73 325.61,38.96 325.61,32.42 L325.61,32.34 C325.61,25.84 330.34,21.99 335.11,21.99 C338.208846,21.9941262 341.087613,23.5921822 342.73,26.22 L342.73,15.5 C342.716364,15.1051062 342.864473,14.7217506 343.140071,14.4386023 C343.415669,14.155454 343.794882,13.9970396 344.19,14 C344.589466,13.9945643 344.974164,14.1508535 345.256655,14.433345 C345.539147,14.7158364 345.695436,15.1005337 345.69,15.5 L345.73,41 Z M328.73,32.3 L328.73,32.38 C328.73,37.08 332,40.08 335.73,40.08 C337.70629,40.0174731 339.576144,39.1697848 340.925611,37.7245968 C342.275079,36.2794088 342.992842,34.3559367 342.92,32.38 L342.92,32.3 C342.992787,30.3279374 342.273804,28.40868 340.923236,26.9698278 C339.572669,25.5309755 337.702718,24.6920647 335.73,24.64 C331.84,24.62 328.69,27.47 328.69,32.28 L328.73,32.3 Z" id="Shape"></path>
            <path d="M358.81,39 C358.437294,38.7371102 358.219854,38.3059804 358.23,37.85 C358.221963,37.4566884 358.371909,37.076566 358.646296,36.7946613 C358.920683,36.5127566 359.296615,36.352594 359.69,36.35 C360.029786,36.3467246 360.358311,36.4717066 360.61,36.7 C362.930172,38.8127777 365.972668,39.9546083 369.11,39.89 C372.73,39.89 375.11,37.97 375.11,35.31 L375.11,35.23 C375.11,32.73 373.76,31.31 368.11,30.11 C361.91,28.76 359.11,26.76 359.11,22.34 L359.11,22.26 C359.11,18.03 362.84,14.91 367.96,14.91 C371.036081,14.8074322 374.057525,15.7406289 376.54,17.56 C376.937609,17.8453434 377.178265,18.3007394 377.19,18.79 C377.19,19.5963357 376.536336,20.25 375.73,20.25 C375.414824,20.2602079 375.105217,20.1652147 374.85,19.98 C372.846766,18.4328218 370.381024,17.605037 367.85,17.63 C364.35,17.63 362.12,19.55 362.12,21.98 L362.12,22.06 C362.12,24.6 363.5,26.06 369.43,27.29 C375.36,28.52 378.2,30.79 378.2,34.91 L378.2,35 C378.2,39.62 374.35,42.62 369,42.62 C365.282408,42.6546282 361.672556,41.3722274 358.81,39 Z" id="Shape"></path>
            <path d="M391.83,42.74 C386.37,42.74 381.9,38.55 381.9,32.39 L381.9,32.31 C381.9,26.58 385.9,21.96 391.44,21.96 C397.33,21.96 400.68,26.77 400.68,32.04 C400.68001,32.407738 400.533245,32.7602704 400.272278,33.01936 C400.011311,33.2784496 399.657728,33.4226648 399.29,33.42 L384.9,33.42 C385.32,37.73 388.36,40.15 391.9,40.15 C394.039554,40.1639901 396.098377,39.3339934 397.63,37.84 C398.000727,37.4963709 398.538964,37.4031053 399.003693,37.6019664 C399.468423,37.8008275 399.772593,38.2545649 399.78,38.76 C399.785138,39.1456089 399.616146,39.5129816 399.32,39.76 C397.344436,41.7487589 394.631834,42.8280051 391.83,42.74 Z M397.72,31.23 C397.41,27.61 395.33,24.46 391.37,24.46 C387.91,24.46 385.29,27.35 384.91,31.23 L397.72,31.23 Z" id="Shape"></path>
            <path d="M405.14,23.7 C405.134364,22.8847844 405.78493,22.2163946 406.6,22.2 C406.999466,22.1945643 407.384164,22.3508535 407.666655,22.633345 C407.949147,22.9158364 408.105436,23.3005337 408.1,23.7 L408.1,27.43 C409.56,24.12 412.45,22.12 414.95,22.12 C415.347784,22.1081478 415.732286,22.2637607 416.009859,22.5489377 C416.287431,22.8341147 416.432597,23.2226818 416.41,23.62 C416.430127,24.3846857 415.860435,25.0370049 415.1,25.12 C411.25,25.58 408.1,28.47 408.1,34.2 L408.1,41 C408.1,41.8284271 407.428427,42.5 406.6,42.5 C405.771573,42.5 405.1,41.8284271 405.1,41 L405.14,23.7 Z" id="Shape"></path>
            <path d="M428,42.59 L427.85,42.59 C427.075426,42.5648122 426.399667,42.056993 426.16,41.32 L418.7,24.47 C418.600323,24.209836 418.536407,23.9373506 418.51,23.66 C418.527487,22.894469 419.111694,22.2614693 419.873369,22.1827628 C420.635044,22.1040564 421.336344,22.6042204 421.51,23.35 L427.94,38.9 L434.48,23.28 C434.637413,22.6416047 435.212505,22.1947705 435.87,22.2 C436.676336,22.2 437.33,22.8536643 437.33,23.66 C437.324798,23.9104292 437.273966,24.1578099 437.18,24.39 L429.68,41.32 C429.454623,42.0628322 428.776139,42.5757338 428,42.59 Z" id="Shape"></path>
            <path d="M441.66,16.15 C441.755751,15.2556095 442.510499,14.5773499 443.41,14.5773499 C444.309501,14.5773499 445.064249,15.2556095 445.16,16.15 L445.16,16.65 C445.064249,17.5443905 444.309501,18.2226501 443.41,18.2226501 C442.510499,18.2226501 441.755751,17.5443905 441.66,16.65 L441.66,16.15 Z M441.93,23.69 C441.924364,22.8747844 442.57493,22.2063946 443.39,22.19 C443.789466,22.1845643 444.174164,22.3408535 444.456655,22.623345 C444.739147,22.9058364 444.895436,23.2905337 444.89,23.69 L444.89,41 C444.903636,41.3948938 444.755527,41.7782494 444.479929,42.0613977 C444.204331,42.344546 443.825118,42.5029604 443.43,42.5 C443.030534,42.5054357 442.645836,42.3491465 442.363345,42.066655 C442.080853,41.7841636 441.924564,41.3994663 441.93,41 L441.93,23.69 Z" id="Shape"></path>
            <path d="M449.78,32.43 L449.78,32.35 C449.759974,28.194867 452.229167,24.4313808 456.04872,22.7953646 C459.868272,21.1593484 464.296113,21.968651 467.29,24.85 C467.574405,25.105834 467.740804,25.4675698 467.75,25.85 C467.75,26.6342443 467.114244,27.27 466.33,27.27 C465.965763,27.2752764 465.611447,27.151266 465.33,26.92 C463.913855,25.4272332 461.957309,24.5660649 459.9,24.53 C455.9,24.53 452.78,27.95 452.78,32.23 L452.78,32.31 C452.69889,34.3113437 453.429254,36.2606614 454.805492,37.7159711 C456.181729,39.1712808 458.087249,40.0092932 460.09,40.04 C462.182111,39.9889921 464.170941,39.1202251 465.63,37.62 C465.8468,37.3774923 466.154771,37.2361876 466.48,37.23 C467.216748,37.2509132 467.809087,37.8432519 467.83,38.58 C467.826157,38.9240823 467.690093,39.2534994 467.45,39.5 C465.516401,41.5800895 462.789557,42.7399073 459.95,42.69 C457.240393,42.679417 454.64612,41.5921822 452.738583,39.6677641 C450.831046,37.7433461 449.76671,35.1395952 449.78,32.43 Z" id="Shape"></path>
            <path d="M480.33,42.74 C474.87,42.74 470.4,38.55 470.4,32.39 L470.4,32.31 C470.4,26.58 474.4,21.96 479.94,21.96 C485.83,21.96 489.18,26.77 489.18,32.04 C489.18001,32.407738 489.033245,32.7602704 488.772278,33.01936 C488.511311,33.2784496 488.157728,33.4226648 487.79,33.42 L473.4,33.42 C473.82,37.73 476.86,40.15 480.4,40.15 C482.539554,40.1639901 484.598377,39.3339934 486.13,37.84 C486.500727,37.4963709 487.038964,37.4031053 487.503693,37.6019664 C487.968423,37.8008275 488.272593,38.2545649 488.28,38.76 C488.285138,39.1456089 488.116146,39.5129816 487.82,39.76 C485.844436,41.7487589 483.131834,42.8280051 480.33,42.74 Z M486.22,31.23 C485.91,27.61 483.83,24.46 479.87,24.46 C476.41,24.46 473.79,27.35 473.41,31.23 L486.22,31.23 Z" id="Shape"></path>
            <path d="M492.57,40.17 C492.22881,39.9160933 492.028412,39.5152958 492.03,39.09 C492.035263,38.7478575 492.176248,38.421824 492.42193,38.183644 C492.667611,37.945464 492.997859,37.8146544 493.34,37.82 C493.602022,37.8141871 493.858634,37.8950374 494.07,38.05 C495.908994,39.3815357 498.11009,40.1210481 500.38,40.17 C502.77,40.17 504.5,38.94 504.5,37.01 L504.5,36.93 C504.5,34.93 502.15,34.16 499.5,33.43 C496.38,32.55 492.92,31.43 492.92,27.81 L492.92,27.73 C492.92,24.31 495.77,22.04 499.69,22.04 C501.911534,22.0861778 504.089404,22.6657998 506.04,23.73 C506.484147,23.9816272 506.761882,24.4495911 506.77,24.96 C506.764737,25.3021425 506.623752,25.628176 506.37807,25.866356 C506.132389,26.104536 505.802141,26.2353456 505.46,26.23 C505.234781,26.2297675 505.012546,26.1784823 504.81,26.08 C503.239339,25.1331459 501.452902,24.6030665 499.62,24.54 C497.27,24.54 495.77,25.77 495.77,27.43 L495.77,27.51 C495.77,29.4 498.23,30.13 500.89,30.94 C503.97,31.86 507.28,33.06 507.28,36.63 L507.28,36.71 C507.28,40.48 504.16,42.71 500.2,42.71 C497.460589,42.64139 494.803944,41.7570023 492.57,40.17 Z" id="Shape"></path>
            <path d="M202,77.29 C200.732108,77.2782648 199.544864,76.6660925 198.8,75.64 L198.8,76.44 C198.756426,76.8129314 198.440468,77.0941222 198.065,77.0941222 C197.689532,77.0941222 197.373574,76.8129314 197.33,76.44 L197.33,64.56 C197.337797,64.3636838 197.423344,64.1785268 197.567783,64.0453424 C197.712223,63.912158 197.903697,63.8418802 198.1,63.85 C198.487697,63.860484 198.799516,64.1723035 198.81,64.56 L198.81,69 C199.543954,67.9587327 200.736076,67.3365942 202.01,67.33 C204.48,67.33 206.23,69.33 206.23,72.33 C206.23,75.33 204.48,77.29 202,77.29 Z M201.63,68.66 C200.495155,68.6838729 199.441465,69.2535356 198.8,70.19 L198.8,74.49 C199.446852,75.4151168 200.501211,75.9702388 201.63,75.98 C203.55,75.98 204.69,74.43 204.69,72.33 C204.69,70.23 203.56,68.66 201.64,68.66 L201.63,68.66 Z" id="Shape"></path>
            <path d="M215.57,68.44 L211.18,79 C210.772363,80.1831058 209.64066,80.9619119 208.39,80.92 C207.88,80.92 207.23,80.92 207.23,80.25 C207.227328,80.0749513 207.294313,79.9060125 207.416216,79.7803587 C207.538119,79.6547049 207.704951,79.5826322 207.88,79.58 L208.37,79.58 C209.010236,79.6129446 209.587708,79.1974971 209.76,78.58 L210.39,77.15 L206.78,68.44 C206.742466,68.3618756 206.722012,68.2766496 206.72,68.19 C206.722634,67.9937341 206.803136,67.8065552 206.943793,67.6696499 C207.084449,67.5327445 207.273735,67.4573298 207.47,67.46 C207.771567,67.4506128 208.047004,67.6302453 208.16,67.91 L211.16,75.35 L214.16,67.91 C214.30492,67.5925377 214.647417,67.4145664 214.990496,67.47845 C215.333574,67.5423337 215.589058,67.8316531 215.61,68.18 C215.615735,68.2685444 215.602084,68.357274 215.57,68.44 Z" id="Shape"></path>
            <rect id="Rectangle-path" x="358.31" y="62.97" width="5.3" height="20.9" rx="0.48"></rect>
            <path d="M280,63 L276.31,63 C275.862649,63 275.5,63.3626494 275.5,63.81 L275.5,77.37 C275.5,78.8 273.5,79.26 271.06,79.26 L265.57,79.26 C263.12,79.26 261.13,78.8 261.13,77.37 L261.13,63.78 C261.13,63.3326494 260.767351,62.97 260.32,62.97 L256.63,62.97 C256.182649,62.97 255.82,63.3326494 255.82,63.78 C255.82,63.78 255.82,75.25 255.82,77.65 C255.737448,79.7901833 256.909294,81.7823212 258.82,82.75 C260.82,83.94 265.42,83.89 266.82,83.89 L269.82,83.89 C271.19,83.89 275.82,83.94 277.82,82.75 C279.730706,81.7823212 280.902552,79.7901833 280.82,77.65 C280.82,75.26 280.82,63.78 280.82,63.78 C280.803748,63.3405012 280.439762,62.99427 280,63 Z" id="Shape"></path>
            <path d="M385.37,63.11 C385.460863,63.0209678 385.58279,62.9707626 385.71,62.97 L391.76,62.97 C391.970918,62.9685505 392.159098,63.102237 392.227157,63.3018782 C392.295217,63.5015194 392.227883,63.7223127 392.06,63.85 L383.17,71.59 C383.077506,71.6872182 382.949189,71.7422501 382.815,71.7422501 C382.680811,71.7422501 382.552494,71.6872182 382.46,71.59 L379.46,68.96 C379.365936,68.8678364 379.312929,68.7416897 379.312929,68.61 C379.312929,68.4783103 379.365936,68.3521636 379.46,68.26 L385.37,63.11 Z" id="Shape"></path>
            <path d="M388.37,83.73 C388.460863,83.8190322 388.58279,83.8692374 388.71,83.87 L394.76,83.87 C394.970918,83.8714495 395.159098,83.737763 395.227157,83.5381218 C395.295217,83.3384806 395.227883,83.1176873 395.06,82.99 L386.17,75.25 C386.077506,75.1527818 385.949189,75.0977499 385.815,75.0977499 C385.680811,75.0977499 385.552494,75.1527818 385.46,75.25 L382.46,77.88 C382.365936,77.9721636 382.312929,78.0983103 382.312929,78.23 C382.312929,78.3616897 382.365936,78.4878364 382.46,78.58 L388.37,83.73 Z" id="Shape"></path>
            <path d="M372.21,83.75 C372.120093,83.8330211 372.002374,83.8793951 371.88,83.88 L365.82,83.88 C365.623982,83.8788648 365.447503,83.7610181 365.371339,83.5803993 C365.295174,83.3997806 365.333982,83.1911501 365.47,83.05 L376.09,73.81 C376.193778,73.7170499 376.253083,73.5843183 376.253083,73.445 C376.253083,73.3056817 376.193778,73.1729501 376.09,73.08 L365.48,63.85 C365.325766,63.7160894 365.270776,63.5005515 365.342007,63.3091189 C365.413238,63.1176863 365.595745,62.9905193 365.8,62.99 L371.86,62.99 C371.982374,62.9906049 372.100093,63.0369789 372.19,63.12 L383.62,73.12 C383.72719,73.2130667 383.788752,73.3480451 383.788752,73.49 C383.788752,73.6319549 383.72719,73.7669333 383.62,73.86 L372.21,83.75 Z" id="Shape"></path>
            <path d="M296.64,68.11 C296.64,67.8393805 296.85938,67.62 297.13,67.62 L304.65,67.62 C304.864825,67.62 305.070852,67.534661 305.222756,67.3827565 C305.374661,67.230852 305.46,67.0248254 305.46,66.81 L305.46,63.81 C305.46,63.3626494 305.097351,63 304.65,63 L283.33,63 C282.882649,63 282.52,63.3626494 282.52,63.81 L282.52,66.81 C282.52,67.0248254 282.605339,67.230852 282.757244,67.3827565 C282.909148,67.534661 283.115175,67.62 283.33,67.62 L290.85,67.62 C291.12062,67.62 291.34,67.8393805 291.34,68.11 L291.34,83.11 C291.34,83.5573506 291.702649,83.92 292.15,83.92 L295.83,83.92 C296.277351,83.92 296.64,83.5573506 296.64,83.11 L296.64,68.11 Z" id="Shape"></path>
            <path d="M248.24,75.94 C248.305753,76.0005162 248.39073,76.0359234 248.48,76.04 C248.667777,76.04 248.82,75.8877768 248.82,75.7 L248.82,63.78 C248.82,63.3326494 249.182649,62.97 249.63,62.97 L253.32,62.97 C253.767351,62.97 254.13,63.3326494 254.13,63.78 L254.13,81.06 C254.13,82.82 253.44,83.59 252.77,83.89 C251.3912,84.2148326 249.939565,83.8906095 248.83,83.01 L235.6,71.49 L234.84,70.83 C234.752725,70.7541641 234.628741,70.7374162 234.524473,70.7873781 C234.420205,70.8373399 234.355576,70.9444643 234.36,71.06 L234.36,83.06 C234.36,83.5073506 233.997351,83.87 233.55,83.87 L229.86,83.87 C229.412649,83.87 229.05,83.5073506 229.05,83.06 L229.05,65.8 C229.05,64.04 229.74,63.27 230.41,62.97 C231.7888,62.6451674 233.240435,62.9693905 234.35,63.85 L247.57,75.36 L248.24,75.94 Z" id="Shape"></path>
            <path d="M350.72,75.94 C350.785753,76.0005162 350.87073,76.0359234 350.96,76.04 C351.147777,76.04 351.3,75.8877768 351.3,75.7 L351.3,63.78 C351.3,63.3326494 351.662649,62.97 352.11,62.97 L355.8,62.97 C356.247351,62.97 356.61,63.3326494 356.61,63.78 L356.61,81.06 C356.61,82.82 355.92,83.59 355.25,83.89 C353.8712,84.2148326 352.419565,83.8906095 351.31,83.01 L338.09,71.5 L337.33,70.84 C337.242725,70.7641641 337.118741,70.7474162 337.014473,70.7973781 C336.910205,70.8473399 336.845576,70.9544643 336.85,71.07 L336.85,83.07 C336.85,83.5173506 336.487351,83.88 336.04,83.88 L332.35,83.88 C331.902649,83.88 331.54,83.5173506 331.54,83.07 L331.54,65.8 C331.54,64.04 332.23,63.27 332.9,62.97 C334.2788,62.6451674 335.730435,62.9693905 336.84,63.85 L350.06,75.36 L350.72,75.94 Z" id="Shape"></path>
            <rect id="Rectangle-path" x="358.31" y="62.97" width="5.3" height="20.9" rx="0.81"></rect>
            <path d="M329.7,83.07 L316.64,64.21 C316.060792,63.3661718 315.103487,62.8613429 314.08,62.86 C313.056513,62.8613429 312.099208,63.3661718 311.52,64.21 L298.46,83.07 C298.341287,83.2152466 298.315917,83.4155212 298.394662,83.5857811 C298.473408,83.7560411 298.642446,83.8664015 298.83,83.87 L303.6,83.87 C303.774536,83.8674244 303.934523,83.7721939 304.02,83.62 L307.4,78.74 C307.48069,78.5698827 307.651719,78.4610461 307.84,78.46 L320.3,78.46 C320.488281,78.4610461 320.65931,78.5698827 320.74,78.74 L324.12,83.62 C324.205477,83.7721939 324.365464,83.8674244 324.54,83.87 L329.31,83.87 C329.497554,83.8664015 329.666592,83.7560411 329.745338,83.5857811 C329.824083,83.4155212 329.798713,83.2152466 329.68,83.07 L329.7,83.07 Z M316.78,73.82 L311.38,73.82 C311.259584,73.824233 311.149095,73.7535665 311.102437,73.6424764 C311.055779,73.5313864 311.082674,73.4030187 311.17,73.32 L313.83,69.48 L313.89,69.42 C313.929592,69.4119184 313.970408,69.4119184 314.01,69.42 C314.049592,69.4119184 314.090408,69.4119184 314.13,69.42 L314.19,69.48 L316.85,73.32 C316.937326,73.4030187 316.964221,73.5313864 316.917563,73.6424764 C316.870905,73.7535665 316.760416,73.824233 316.64,73.82 L316.78,73.82 Z" id="Shape"></path>
        </g>
    </g>
</svg>