<?xml version="1.0" encoding="UTF-8"?>
<svg width="450px" height="70px" viewBox="0 0 450 70" version="1.1" xmlns="http://www.w3.org/2000/svg" xmlns:xlink="http://www.w3.org/1999/xlink">
    <!-- Generator: Sketch 48.2 (47327) - http://www.bohemiancoding.com/sketch -->
    <title>xi2</title>
    <desc>Created with Sketch.</desc>
    <defs></defs>
    <g id="Page-1" stroke="none" stroke-width="1" fill="none" fill-rule="evenodd">
        <g id="xi2" fill="#4D4D4F" fill-rule="nonzero">
            <path d="M79.4078408,69.1995763 L69.8805644,69.1995763 C68.9203717,69.1990195 67.9999475,68.8160241 67.322791,68.1352679 L54.9459147,55.6954487 C53.6077145,54.2718713 53.6446725,52.0420731 55.0293151,50.6636258 C56.4139577,49.2851784 58.6438994,49.2582198 60.0614614,50.6027904 L71.3797514,61.9783012 L79.3906746,61.9783012 C86.5261183,61.9783012 92.3340376,54.8657459 92.3340376,46.1223955 C92.3340376,37.6079286 86.6748926,30.5068174 79.745444,30.2893781 C78.1191694,30.2391733 76.7273711,29.1074585 76.3465238,27.5256096 C73.5941994,16.041379 64.7421294,8.02473376 54.8257509,8.02473376 C47.7475281,8.03045585 41.0183526,12.1160267 36.7954517,18.9825322 C36.2573547,19.8583335 35.371483,20.4632728 34.359903,20.6457068 C33.348323,20.8281408 32.3069383,20.5707736 31.4967982,19.9381209 C30.8709435,19.4222131 30.0876496,19.1355436 29.2766281,19.1255844 C26.8733512,19.1255844 24.847732,21.8035216 24.847732,24.9678362 C24.8504542,25.351253 24.8829773,25.7338782 24.9450075,26.1122538 C25.110583,27.181095 24.7882795,28.2678697 24.066757,29.0736251 C23.3452346,29.8793806 22.3004951,30.3192423 21.2199282,30.2722118 L20.8422704,30.2722118 L20.7278287,30.2722118 C13.6267175,30.2722118 7.82452029,37.3847671 7.82452029,46.1281176 C7.82452029,54.871468 13.6324396,61.9840233 20.7678833,61.9840233 L27.3940612,61.9840233 L44.4287171,44.9436454 L28.6414763,28.921799 C27.241498,27.4996992 27.2594311,25.2119528 28.681531,23.8119745 C30.1036308,22.4119962 32.3913772,22.4299292 33.7913555,23.8520291 L52.102037,42.4144825 C53.4992761,43.822291 53.4992761,46.0936102 52.102037,47.5014187 L31.5025203,68.1009354 C30.8117186,68.8143161 29.8575992,69.2116934 28.8646378,69.1995763 L20.7621612,69.1995763 C9.64414427,69.1995763 0.603245273,58.8483191 0.603245273,46.1281176 C0.603245273,34.5866661 8.04195964,25.0021688 17.7237325,23.3198749 C18.4618818,16.9054143 23.3599891,11.9386419 29.2766281,11.9386419 C30.386391,11.9386483 31.4891521,12.1143948 32.5439403,12.4593519 C38.1344203,5.11219098 46.2769515,0.820625 54.8143067,0.820625 C67.3285131,0.820625 78.4751405,9.97596576 82.669431,23.3770958 C92.3397596,25.145221 99.5667568,34.6095545 99.5667568,46.1338397 C99.5724788,58.8483191 90.5258578,69.1995763 79.4078408,69.1995763 Z M57.5094102,40.3201983 C56.0536658,40.3170683 54.7421947,39.4400268 54.1832686,38.0958531 C53.6243424,36.7516795 53.9273039,35.2033343 54.9516368,34.1689537 L65.2513952,23.7890861 C66.6674128,22.4426658 68.8975978,22.4670043 70.2838937,23.844007 C71.6701903,25.2210096 71.7095291,27.4509802 70.3726639,28.8760223 L60.0729056,39.2558899 C59.395075,39.9391321 58.471839,40.3224398 57.5094102,40.3201983 Z" id="Combined-Shape"></path>
            <path d="M140.9,26 L149.9,14.57 L141.36,3.8 C141.065242,3.4860992 140.888527,3.0796532 140.86,2.65 C140.881681,1.8372348 141.546946,1.1897109 142.36,1.19 C142.910272,1.2053971 143.416622,1.494204 143.71,1.96 L151.83,12.5 L159.83,2.07 C160.145794,1.5563783 160.688774,1.2253835 161.29,1.18 C162.060886,1.1963849 162.675643,1.8289604 162.67,2.6 C162.665175,2.9989382 162.515967,3.3826171 162.25,3.68 L153.67,14.53 L162.56,25.88 C162.86439,26.1752162 163.04344,26.5762882 163.06,27 C163.06,27.8284271 162.388427,28.5 161.56,28.5 C161.009728,28.4846029 160.503378,28.195796 160.21,27.73 L151.71,16.73 L143.32,27.66 C142.994961,28.1834329 142.43518,28.5155695 141.82,28.55 C141.060916,28.5176936 140.463924,27.8897469 140.47,27.13 C140.466189,26.7126718 140.619715,26.3092206 140.9,26 Z" id="Shape"></path>
            <path d="M167.76,2.15 C167.855751,1.2556095 168.610499,0.5773499 169.51,0.5773499 C170.409501,0.5773499 171.164249,1.2556095 171.26,2.15 L171.26,2.65 C171.164249,3.5443905 170.409501,4.2226501 169.51,4.2226501 C168.610499,4.2226501 167.855751,3.5443905 167.76,2.65 L167.76,2.15 Z M168.03,9.69 C168.024364,8.8747844 168.67493,8.2063946 169.49,8.19 C169.889466,8.1845643 170.274164,8.3408535 170.556655,8.623345 C170.839147,8.9058364 170.995436,9.2905337 170.99,9.69 L170.99,27 C171.003636,27.3948938 170.855527,27.7782494 170.579929,28.0613977 C170.304331,28.344546 169.925118,28.5029604 169.53,28.5 C169.125394,28.5137171 168.732831,28.3610931 168.443747,28.0776776 C168.154664,27.7942621 167.994297,27.4047978 168,27 L168.03,9.69 Z" id="Shape"></path>
            <path d="M184.11,14.89 L184.11,14.81 C184.11,7.19 189.8,0.88 197.73,0.88 C201.264662,0.7834146 204.703776,2.0346514 207.35,4.38 C207.724002,4.6817065 207.949918,5.1298952 207.97,5.61 C207.9381,6.4403557 207.260908,7.0999591 206.43,7.11 C206.069333,7.0950838 205.721248,6.973254 205.43,6.76 C203.356026,4.7607757 200.580561,3.6548983 197.7,3.68 C191.7,3.68 187.27,8.53 187.27,14.68 L187.27,14.76 C187.27,20.99 191.77,25.88 197.7,25.88 C200.701116,25.9270987 203.591144,24.7457997 205.7,22.61 C205.963359,22.3413205 206.323773,22.1899463 206.7,22.19 C207.495349,22.2159275 208.134072,22.8546513 208.16,23.65 C208.156855,24.0652544 207.974595,24.4589353 207.66,24.73 C205.006041,27.3627534 201.397525,28.8061599 197.66,28.73 C189.84,28.74 184.11,22.63 184.11,14.89 Z" id="Shape"></path>
            <path d="M212.7,1.5 C212.7,0.6715729 213.371573,0 214.2,0 C215.028427,0 215.7,0.6715729 215.7,1.5 L215.7,27 C215.713636,27.3948938 215.565527,27.7782494 215.289929,28.0613977 C215.014331,28.344546 214.635118,28.5029604 214.24,28.5 C213.840534,28.5054357 213.455836,28.3491465 213.173345,28.066655 C212.890853,27.7841636 212.734564,27.3994663 212.74,27 L212.7,1.5 Z" id="Shape"></path>
            <path d="M220.55,18.43 L220.55,18.35 C220.527909,12.6228073 225.152807,7.9620917 230.88,7.9400003 C236.607193,7.9179089 241.267908,12.5428073 241.29,18.27 L241.29,18.35 C241.306205,21.1174866 240.211241,23.77574 238.250543,25.7289188 C236.289845,27.6820975 233.627404,28.7668387 230.86,28.74 C228.11578,28.7725115 225.474459,27.6967256 223.533867,25.7561331 C221.593274,23.8155407 220.517489,21.1742196 220.55,18.43 Z M238.25,18.43 L238.25,18.35 C238.314562,16.335733 237.569007,14.3796437 236.180129,12.9193493 C234.791252,11.4590549 232.874972,10.6164347 230.86,10.58 C226.55,10.58 223.59,14.08 223.59,18.28 L223.59,18.36 C223.517153,20.3659198 224.255731,22.3165616 225.63886,23.7712001 C227.02199,25.2258386 228.932957,26.0617249 230.94,26.09 C232.93821,26.0837332 234.847496,25.2630636 236.22704,23.8174685 C237.606583,22.3718734 238.337126,20.42632 238.25,18.43 Z" id="Shape"></path>
            <path d="M262.91,27 C262.91,27.8063357 262.256336,28.46 261.45,28.46 C260.643664,28.46 259.99,27.8063357 259.99,27 L259.99,24.84 C258.619335,27.3014986 255.99653,28.799694 253.18,28.73 C248.37,28.73 245.56,25.5 245.56,20.73 L245.56,9.73 C245.546364,9.3351062 245.694473,8.9517506 245.970071,8.6686023 C246.245669,8.385454 246.624882,8.2270396 247.02,8.23 C247.848427,8.23 248.52,8.9015729 248.52,9.73 L248.52,20 C248.52,23.69 250.52,26 254.02,26 C255.663702,26.039537 257.24864,25.3878985 258.389183,24.2036349 C259.529725,23.0193714 260.121311,21.4110527 260.02,19.77 L260.02,9.7 C260.006364,9.3051062 260.154473,8.9217506 260.430071,8.6386023 C260.705669,8.355454 261.084882,8.1970396 261.48,8.2 C261.873385,8.202594 262.249317,8.3627566 262.523704,8.6446613 C262.798091,8.926566 262.948037,9.3066884 262.94,9.7 L262.91,27 Z" id="Shape"></path>
            <path d="M287.73,27 C287.73,27.8284271 287.058427,28.5 286.23,28.5 C285.401573,28.5 284.73,27.8284271 284.73,27 L284.73,24.31 C283.11,26.7 280.73,28.73 277.11,28.73 C272.34,28.73 267.61,24.96 267.61,18.42 L267.61,18.34 C267.61,11.84 272.34,7.99 277.11,7.99 C280.208846,7.9941262 283.087613,9.5921822 284.73,12.22 L284.73,1.5 C284.716364,1.1051062 284.864473,0.7217506 285.140071,0.4386023 C285.415669,0.155454 285.794882,-0.0029604 286.19,-4.39242826e-15 C286.589466,-0.0054357 286.974164,0.1508535 287.256655,0.433345 C287.539147,0.7158364 287.695436,1.1005337 287.69,1.5 L287.73,27 Z M270.73,18.3 L270.73,18.38 C270.73,23.08 274,26.08 277.73,26.08 C279.70629,26.0174731 281.576144,25.1697848 282.925611,23.7245968 C284.275079,22.2794088 284.992842,20.3559367 284.92,18.38 L284.92,18.3 C284.992787,16.3279374 284.273804,14.40868 282.923236,12.9698278 C281.572669,11.5309755 279.702718,10.6920647 277.73,10.64 C273.84,10.62 270.69,13.47 270.69,18.28 L270.73,18.3 Z" id="Shape"></path>
            <path d="M300.81,25 C300.437294,24.7371102 300.219854,24.3059804 300.23,23.85 C300.221963,23.4566884 300.371909,23.076566 300.646296,22.7946613 C300.920683,22.5127566 301.296615,22.352594 301.69,22.35 C302.029786,22.3467246 302.358311,22.4717066 302.61,22.7 C304.930172,24.8127777 307.972668,25.9546083 311.11,25.89 C314.73,25.89 317.11,23.97 317.11,21.31 L317.11,21.23 C317.11,18.73 315.76,17.31 310.11,16.11 C303.91,14.76 301.11,12.76 301.11,8.34 L301.11,8.26 C301.11,4.03 304.84,0.91 309.96,0.91 C313.036081,0.8074322 316.057525,1.7406289 318.54,3.56 C318.937609,3.8453434 319.178265,4.3007394 319.19,4.79 C319.19,5.5963357 318.536336,6.25 317.73,6.25 C317.414824,6.2602079 317.105217,6.1652147 316.85,5.98 C314.846766,4.4328218 312.381024,3.605037 309.85,3.63 C306.35,3.63 304.12,5.55 304.12,7.98 L304.12,8.06 C304.12,10.6 305.5,12.06 311.43,13.29 C317.36,14.52 320.2,16.79 320.2,20.91 L320.2,21 C320.2,25.62 316.35,28.62 311,28.62 C307.282408,28.6546282 303.672556,27.3722274 300.81,25 Z" id="Shape"></path>
            <path d="M333.83,28.74 C328.37,28.74 323.9,24.55 323.9,18.39 L323.9,18.31 C323.9,12.58 327.9,7.96 333.44,7.96 C339.33,7.96 342.68,12.77 342.68,18.04 C342.68001,18.407738 342.533245,18.7602704 342.272278,19.01936 C342.011311,19.2784496 341.657728,19.4226648 341.29,19.42 L326.9,19.42 C327.32,23.73 330.36,26.15 333.9,26.15 C336.039554,26.1639901 338.098377,25.3339934 339.63,23.84 C340.000727,23.4963709 340.538964,23.4031053 341.003693,23.6019664 C341.468423,23.8008275 341.772593,24.2545649 341.78,24.76 C341.785138,25.1456089 341.616146,25.5129816 341.32,25.76 C339.344436,27.7487589 336.631834,28.8280051 333.83,28.74 Z M339.72,17.23 C339.41,13.61 337.33,10.46 333.37,10.46 C329.91,10.46 327.29,13.35 326.91,17.23 L339.72,17.23 Z" id="Shape"></path>
            <path d="M347.14,9.7 C347.134364,8.8847844 347.78493,8.2163946 348.6,8.2 C348.999466,8.1945643 349.384164,8.3508535 349.666655,8.633345 C349.949147,8.9158364 350.105436,9.3005337 350.1,9.7 L350.1,13.43 C351.56,10.12 354.45,8.12 356.95,8.12 C357.347784,8.1081478 357.732286,8.2637607 358.009859,8.5489377 C358.287431,8.8341147 358.432597,9.2226818 358.41,9.62 C358.430127,10.3846857 357.860435,11.0370049 357.1,11.12 C353.25,11.58 350.1,14.47 350.1,20.2 L350.1,27 C350.1,27.8284271 349.428427,28.5 348.6,28.5 C347.771573,28.5 347.1,27.8284271 347.1,27 L347.14,9.7 Z" id="Shape"></path>
            <path d="M370,28.59 L369.85,28.59 C369.075426,28.5648122 368.399667,28.056993 368.16,27.32 L360.7,10.47 C360.600323,10.209836 360.536407,9.9373506 360.51,9.66 C360.527487,8.894469 361.111694,8.2614693 361.873369,8.1827628 C362.635044,8.1040564 363.336344,8.6042204 363.51,9.35 L369.94,24.9 L376.48,9.28 C376.637413,8.6416047 377.212505,8.1947705 377.87,8.2 C378.676336,8.2 379.33,8.8536643 379.33,9.66 C379.324798,9.9104292 379.273966,10.1578099 379.18,10.39 L371.68,27.32 C371.454623,28.0628322 370.776139,28.5757338 370,28.59 Z" id="Shape"></path>
            <path d="M383.66,2.15 C383.755751,1.2556095 384.510499,0.5773499 385.41,0.5773499 C386.309501,0.5773499 387.064249,1.2556095 387.16,2.15 L387.16,2.65 C387.064249,3.5443905 386.309501,4.2226501 385.41,4.2226501 C384.510499,4.2226501 383.755751,3.5443905 383.66,2.65 L383.66,2.15 Z M383.93,9.69 C383.924364,8.8747844 384.57493,8.2063946 385.39,8.19 C385.789466,8.1845643 386.174164,8.3408535 386.456655,8.623345 C386.739147,8.9058364 386.895436,9.2905337 386.89,9.69 L386.89,27 C386.903636,27.3948938 386.755527,27.7782494 386.479929,28.0613977 C386.204331,28.344546 385.825118,28.5029604 385.43,28.5 C385.030534,28.5054357 384.645836,28.3491465 384.363345,28.066655 C384.080853,27.7841636 383.924564,27.3994663 383.93,27 L383.93,9.69 Z" id="Shape"></path>
            <path d="M391.78,18.43 L391.78,18.35 C391.759974,14.194867 394.229167,10.4313808 398.04872,8.7953646 C401.868272,7.1593484 406.296113,7.968651 409.29,10.85 C409.574405,11.105834 409.740804,11.4675698 409.75,11.85 C409.75,12.6342443 409.114244,13.27 408.33,13.27 C407.965763,13.2752764 407.611447,13.151266 407.33,12.92 C405.913855,11.4272332 403.957309,10.5660649 401.9,10.53 C397.9,10.53 394.78,13.95 394.78,18.23 L394.78,18.31 C394.69889,20.3113437 395.429254,22.2606614 396.805492,23.7159711 C398.181729,25.1712808 400.087249,26.0092932 402.09,26.04 C404.182111,25.9889921 406.170941,25.1202251 407.63,23.62 C407.8468,23.3774923 408.154771,23.2361876 408.48,23.23 C409.216748,23.2509132 409.809087,23.8432519 409.83,24.58 C409.826157,24.9240823 409.690093,25.2534994 409.45,25.5 C407.516401,27.5800895 404.789557,28.7399073 401.95,28.69 C399.240393,28.679417 396.64612,27.5921822 394.738583,25.6677641 C392.831046,23.7433461 391.76671,21.1395952 391.78,18.43 Z" id="Shape"></path>
            <path d="M422.33,28.74 C416.87,28.74 412.4,24.55 412.4,18.39 L412.4,18.31 C412.4,12.58 416.4,7.96 421.94,7.96 C427.83,7.96 431.18,12.77 431.18,18.04 C431.18001,18.407738 431.033245,18.7602704 430.772278,19.01936 C430.511311,19.2784496 430.157728,19.4226648 429.79,19.42 L415.4,19.42 C415.82,23.73 418.86,26.15 422.4,26.15 C424.539554,26.1639901 426.598377,25.3339934 428.13,23.84 C428.500727,23.4963709 429.038964,23.4031053 429.503693,23.6019664 C429.968423,23.8008275 430.272593,24.2545649 430.28,24.76 C430.285138,25.1456089 430.116146,25.5129816 429.82,25.76 C427.844436,27.7487589 425.131834,28.8280051 422.33,28.74 Z M428.22,17.23 C427.91,13.61 425.83,10.46 421.87,10.46 C418.41,10.46 415.79,13.35 415.41,17.23 L428.22,17.23 Z" id="Shape"></path>
            <path d="M434.57,26.17 C434.22881,25.9160933 434.028412,25.5152958 434.03,25.09 C434.035263,24.7478575 434.176248,24.421824 434.42193,24.183644 C434.667611,23.945464 434.997859,23.8146544 435.34,23.82 C435.602022,23.8141871 435.858634,23.8950374 436.07,24.05 C437.908994,25.3815357 440.11009,26.1210481 442.38,26.17 C444.77,26.17 446.5,24.94 446.5,23.01 L446.5,22.93 C446.5,20.93 444.15,20.16 441.5,19.43 C438.38,18.55 434.92,17.43 434.92,13.81 L434.92,13.73 C434.92,10.31 437.77,8.04 441.69,8.04 C443.911534,8.0861778 446.089404,8.6657998 448.04,9.73 C448.484147,9.9816272 448.761882,10.4495911 448.77,10.96 C448.764737,11.3021425 448.623752,11.628176 448.37807,11.866356 C448.132389,12.104536 447.802141,12.2353456 447.46,12.23 C447.234781,12.2297675 447.012546,12.1784823 446.81,12.08 C445.239339,11.1331459 443.452902,10.6030665 441.62,10.54 C439.27,10.54 437.77,11.77 437.77,13.43 L437.77,13.51 C437.77,15.4 440.23,16.13 442.89,16.94 C445.97,17.86 449.28,19.06 449.28,22.63 L449.28,22.71 C449.28,26.48 446.16,28.71 442.2,28.71 C439.460589,28.64139 436.803944,27.7570023 434.57,26.17 Z" id="Shape"></path>
            <path d="M144,63.29 C142.732108,63.2782648 141.544864,62.6660925 140.8,61.64 L140.8,62.44 C140.756426,62.8129314 140.440468,63.0941222 140.065,63.0941222 C139.689532,63.0941222 139.373574,62.8129314 139.33,62.44 L139.33,50.56 C139.337797,50.3636838 139.423344,50.1785268 139.567783,50.0453424 C139.712223,49.912158 139.903697,49.8418802 140.1,49.85 C140.487697,49.860484 140.799516,50.1723035 140.81,50.56 L140.81,55 C141.543954,53.9587327 142.736076,53.3365942 144.01,53.33 C146.48,53.33 148.23,55.33 148.23,58.33 C148.23,61.33 146.48,63.29 144,63.29 Z M143.63,54.66 C142.495155,54.6838729 141.441465,55.2535356 140.8,56.19 L140.8,60.49 C141.446852,61.4151168 142.501211,61.9702388 143.63,61.98 C145.55,61.98 146.69,60.43 146.69,58.33 C146.69,56.23 145.56,54.66 143.64,54.66 L143.63,54.66 Z" id="Shape"></path>
            <path d="M157.57,54.44 L153.18,65 C152.772363,66.1831058 151.64066,66.9619119 150.39,66.92 C149.88,66.92 149.23,66.92 149.23,66.25 C149.227328,66.0749513 149.294313,65.9060125 149.416216,65.7803587 C149.538119,65.6547049 149.704951,65.5826322 149.88,65.58 L150.37,65.58 C151.010236,65.6129446 151.587708,65.1974971 151.76,64.58 L152.39,63.15 L148.78,54.44 C148.742466,54.3618756 148.722012,54.2766496 148.72,54.19 C148.722634,53.9937341 148.803136,53.8065552 148.943793,53.6696499 C149.084449,53.5327445 149.273735,53.4573298 149.47,53.46 C149.771567,53.4506128 150.047004,53.6302453 150.16,53.91 L153.16,61.35 L156.16,53.91 C156.30492,53.5925377 156.647417,53.4145664 156.990496,53.47845 C157.333574,53.5423337 157.589058,53.8316531 157.61,54.18 C157.615735,54.2685444 157.602084,54.357274 157.57,54.44 Z" id="Shape"></path>
            <rect id="Rectangle-path" x="300.31" y="48.97" width="5.3" height="20.9" rx="0.48"></rect>
            <path d="M222,49 L218.31,49 C217.862649,49 217.5,49.3626494 217.5,49.81 L217.5,63.37 C217.5,64.8 215.5,65.26 213.06,65.26 L207.57,65.26 C205.12,65.26 203.13,64.8 203.13,63.37 L203.13,49.78 C203.13,49.3326494 202.767351,48.97 202.32,48.97 L198.63,48.97 C198.182649,48.97 197.82,49.3326494 197.82,49.78 C197.82,49.78 197.82,61.25 197.82,63.65 C197.737448,65.7901833 198.909294,67.7823212 200.82,68.75 C202.82,69.94 207.42,69.89 208.82,69.89 L211.82,69.89 C213.19,69.89 217.82,69.94 219.82,68.75 C221.730706,67.7823212 222.902552,65.7901833 222.82,63.65 C222.82,61.26 222.82,49.78 222.82,49.78 C222.803748,49.3405012 222.439762,48.99427 222,49 Z" id="Shape"></path>
            <path d="M327.37,49.11 C327.460863,49.0209678 327.58279,48.9707626 327.71,48.97 L333.76,48.97 C333.970918,48.9685505 334.159098,49.102237 334.227157,49.3018782 C334.295217,49.5015194 334.227883,49.7223127 334.06,49.85 L325.17,57.59 C325.077506,57.6872182 324.949189,57.7422501 324.815,57.7422501 C324.680811,57.7422501 324.552494,57.6872182 324.46,57.59 L321.46,54.96 C321.365936,54.8678364 321.312929,54.7416897 321.312929,54.61 C321.312929,54.4783103 321.365936,54.3521636 321.46,54.26 L327.37,49.11 Z" id="Shape"></path>
            <path d="M330.37,69.73 C330.460863,69.8190322 330.58279,69.8692374 330.71,69.87 L336.76,69.87 C336.970918,69.8714495 337.159098,69.737763 337.227157,69.5381218 C337.295217,69.3384806 337.227883,69.1176873 337.06,68.99 L328.17,61.25 C328.077506,61.1527818 327.949189,61.0977499 327.815,61.0977499 C327.680811,61.0977499 327.552494,61.1527818 327.46,61.25 L324.46,63.88 C324.365936,63.9721636 324.312929,64.0983103 324.312929,64.23 C324.312929,64.3616897 324.365936,64.4878364 324.46,64.58 L330.37,69.73 Z" id="Shape"></path>
            <path d="M314.21,69.75 C314.120093,69.8330211 314.002374,69.8793951 313.88,69.88 L307.82,69.88 C307.623982,69.8788648 307.447503,69.7610181 307.371339,69.5803993 C307.295174,69.3997806 307.333982,69.1911501 307.47,69.05 L318.09,59.81 C318.193778,59.7170499 318.253083,59.5843183 318.253083,59.445 C318.253083,59.3056817 318.193778,59.1729501 318.09,59.08 L307.48,49.85 C307.325766,49.7160894 307.270776,49.5005515 307.342007,49.3091189 C307.413238,49.1176863 307.595745,48.9905193 307.8,48.99 L313.86,48.99 C313.982374,48.9906049 314.100093,49.0369789 314.19,49.12 L325.62,59.12 C325.72719,59.2130667 325.788752,59.3480451 325.788752,59.49 C325.788752,59.6319549 325.72719,59.7669333 325.62,59.86 L314.21,69.75 Z" id="Shape"></path>
            <path d="M238.64,54.11 C238.64,53.8393805 238.85938,53.62 239.13,53.62 L246.65,53.62 C246.864825,53.62 247.070852,53.534661 247.222756,53.3827565 C247.374661,53.230852 247.46,53.0248254 247.46,52.81 L247.46,49.81 C247.46,49.3626494 247.097351,49 246.65,49 L225.33,49 C224.882649,49 224.52,49.3626494 224.52,49.81 L224.52,52.81 C224.52,53.0248254 224.605339,53.230852 224.757244,53.3827565 C224.909148,53.534661 225.115175,53.62 225.33,53.62 L232.85,53.62 C233.12062,53.62 233.34,53.8393805 233.34,54.11 L233.34,69.11 C233.34,69.5573506 233.702649,69.92 234.15,69.92 L237.83,69.92 C238.277351,69.92 238.64,69.5573506 238.64,69.11 L238.64,54.11 Z" id="Shape"></path>
            <path d="M190.24,61.94 C190.305753,62.0005162 190.39073,62.0359234 190.48,62.04 C190.667777,62.04 190.82,61.8877768 190.82,61.7 L190.82,49.78 C190.82,49.3326494 191.182649,48.97 191.63,48.97 L195.32,48.97 C195.767351,48.97 196.13,49.3326494 196.13,49.78 L196.13,67.06 C196.13,68.82 195.44,69.59 194.77,69.89 C193.3912,70.2148326 191.939565,69.8906095 190.83,69.01 L177.6,57.49 L176.84,56.83 C176.752725,56.7541641 176.628741,56.7374162 176.524473,56.7873781 C176.420205,56.8373399 176.355576,56.9444643 176.36,57.06 L176.36,69.06 C176.36,69.5073506 175.997351,69.87 175.55,69.87 L171.86,69.87 C171.412649,69.87 171.05,69.5073506 171.05,69.06 L171.05,51.8 C171.05,50.04 171.74,49.27 172.41,48.97 C173.7888,48.6451674 175.240435,48.9693905 176.35,49.85 L189.57,61.36 L190.24,61.94 Z" id="Shape"></path>
            <path d="M292.72,61.94 C292.785753,62.0005162 292.87073,62.0359234 292.96,62.04 C293.147777,62.04 293.3,61.8877768 293.3,61.7 L293.3,49.78 C293.3,49.3326494 293.662649,48.97 294.11,48.97 L297.8,48.97 C298.247351,48.97 298.61,49.3326494 298.61,49.78 L298.61,67.06 C298.61,68.82 297.92,69.59 297.25,69.89 C295.8712,70.2148326 294.419565,69.8906095 293.31,69.01 L280.09,57.5 L279.33,56.84 C279.242725,56.7641641 279.118741,56.7474162 279.014473,56.7973781 C278.910205,56.8473399 278.845576,56.9544643 278.85,57.07 L278.85,69.07 C278.85,69.5173506 278.487351,69.88 278.04,69.88 L274.35,69.88 C273.902649,69.88 273.54,69.5173506 273.54,69.07 L273.54,51.8 C273.54,50.04 274.23,49.27 274.9,48.97 C276.2788,48.6451674 277.730435,48.9693905 278.84,49.85 L292.06,61.36 L292.72,61.94 Z" id="Shape"></path>
            <rect id="Rectangle-path" x="300.31" y="48.97" width="5.3" height="20.9" rx="0.81"></rect>
            <path d="M271.7,69.07 L258.64,50.21 C258.060792,49.3661718 257.103487,48.8613429 256.08,48.86 C255.056513,48.8613429 254.099208,49.3661718 253.52,50.21 L240.46,69.07 C240.341287,69.2152466 240.315917,69.4155212 240.394662,69.5857811 C240.473408,69.7560411 240.642446,69.8664015 240.83,69.87 L245.6,69.87 C245.774536,69.8674244 245.934523,69.7721939 246.02,69.62 L249.4,64.74 C249.48069,64.5698827 249.651719,64.4610461 249.84,64.46 L262.3,64.46 C262.488281,64.4610461 262.65931,64.5698827 262.74,64.74 L266.12,69.62 C266.205477,69.7721939 266.365464,69.8674244 266.54,69.87 L271.31,69.87 C271.497554,69.8664015 271.666592,69.7560411 271.745338,69.5857811 C271.824083,69.4155212 271.798713,69.2152466 271.68,69.07 L271.7,69.07 Z M258.78,59.82 L253.38,59.82 C253.259584,59.824233 253.149095,59.7535665 253.102437,59.6424764 C253.055779,59.5313864 253.082674,59.4030187 253.17,59.32 L255.83,55.48 L255.89,55.42 C255.929592,55.4119184 255.970408,55.4119184 256.01,55.42 C256.049592,55.4119184 256.090408,55.4119184 256.13,55.42 L256.19,55.48 L258.85,59.32 C258.937326,59.4030187 258.964221,59.5313864 258.917563,59.6424764 C258.870905,59.7535665 258.760416,59.824233 258.64,59.82 L258.78,59.82 Z" id="Shape"></path>
        </g>
    </g>
</svg>