<?xml version="1.0" encoding="UTF-8"?>
<svg width="448px" height="67px" viewBox="0 0 448 67" version="1.1" xmlns="http://www.w3.org/2000/svg" xmlns:xlink="http://www.w3.org/1999/xlink">
    <!-- Generator: Sketch 51.3 (57544) - http://www.bohemiancoding.com/sketch -->
    <title>Group</title>
    <desc>Created with Sketch.</desc>
    <defs></defs>
    <g id="Page-1" stroke="none" stroke-width="1" fill="none" fill-rule="evenodd">
        <g id="Group" transform="translate(1.000000, 1.000000)" fill="#4D4D4F">
            <g id="xi3" transform="translate(137.000000, 17.000000)" fill-rule="nonzero">
                <path d="M0.9,26 L9.9,14.57 L1.36,3.8 C1.065242,3.4860992 0.888527,3.0796532 0.86,2.65 C0.881681,1.8372348 1.546946,1.1897109 2.36,1.19 C2.910272,1.2053971 3.416622,1.494204 3.71,1.96 L11.83,12.5 L19.83,2.07 C20.145794,1.5563783 20.688774,1.2253835 21.29,1.18 C22.060886,1.1963849 22.675643,1.8289604 22.67,2.6 C22.665175,2.9989382 22.515967,3.3826171 22.25,3.68 L13.67,14.53 L22.56,25.88 C22.86439,26.1752162 23.04344,26.5762882 23.06,27 C23.06,27.8284271 22.388427,28.5 21.56,28.5 C21.009728,28.4846029 20.503378,28.195796 20.21,27.73 L11.71,16.73 L3.32,27.66 C2.994961,28.1834329 2.43518,28.5155695 1.82,28.55 C1.060916,28.5176936 0.463924,27.8897469 0.47,27.13 C0.466189,26.7126718 0.619715,26.3092206 0.9,26 Z" id="Shape"></path>
                <path d="M27.76,2.15 C27.855751,1.2556095 28.610499,0.5773499 29.51,0.5773499 C30.409501,0.5773499 31.164249,1.2556095 31.26,2.15 L31.26,2.65 C31.164249,3.5443905 30.409501,4.2226501 29.51,4.2226501 C28.610499,4.2226501 27.855751,3.5443905 27.76,2.65 L27.76,2.15 Z M28.03,9.69 C28.024364,8.8747844 28.67493,8.2063946 29.49,8.19 C29.889466,8.1845643 30.274164,8.3408535 30.556655,8.623345 C30.839147,8.9058364 30.995436,9.2905337 30.99,9.69 L30.99,27 C31.003636,27.3948938 30.855527,27.7782494 30.579929,28.0613977 C30.304331,28.344546 29.925118,28.5029604 29.53,28.5 C29.125394,28.5137171 28.732831,28.3610931 28.443747,28.0776776 C28.154664,27.7942621 27.994297,27.4047978 28,27 L28.03,9.69 Z" id="Shape"></path>
                <path d="M44.11,14.89 L44.11,14.81 C44.11,7.19 49.8,0.88 57.73,0.88 C61.264662,0.7834146 64.703776,2.0346514 67.35,4.38 C67.724002,4.6817065 67.949918,5.1298952 67.97,5.61 C67.9381,6.4403557 67.260908,7.0999591 66.43,7.11 C66.069333,7.0950838 65.721248,6.973254 65.43,6.76 C63.356026,4.7607757 60.580561,3.6548983 57.7,3.68 C51.7,3.68 47.27,8.53 47.27,14.68 L47.27,14.76 C47.27,20.99 51.77,25.88 57.7,25.88 C60.701116,25.9270987 63.591144,24.7457997 65.7,22.61 C65.963359,22.3413205 66.323773,22.1899463 66.7,22.19 C67.495349,22.2159275 68.134072,22.8546513 68.16,23.65 C68.156855,24.0652544 67.974595,24.4589353 67.66,24.73 C65.006041,27.3627534 61.397525,28.8061599 57.66,28.73 C49.84,28.74 44.11,22.63 44.11,14.89 Z" id="Shape"></path>
                <path d="M72.7,1.5 C72.7,0.6715729 73.371573,0 74.2,0 C75.028427,0 75.7,0.6715729 75.7,1.5 L75.7,27 C75.713636,27.3948938 75.565527,27.7782494 75.289929,28.0613977 C75.014331,28.344546 74.635118,28.5029604 74.24,28.5 C73.840534,28.5054357 73.455836,28.3491465 73.173345,28.066655 C72.890853,27.7841636 72.734564,27.3994663 72.74,27 L72.7,1.5 Z" id="Shape"></path>
                <path d="M80.55,18.43 L80.55,18.35 C80.527909,12.6228073 85.152807,7.9620917 90.88,7.9400003 C96.607193,7.9179089 101.267908,12.5428073 101.29,18.27 L101.29,18.35 C101.306205,21.1174866 100.211241,23.77574 98.250543,25.7289188 C96.289845,27.6820975 93.627404,28.7668387 90.86,28.74 C88.11578,28.7725115 85.474459,27.6967256 83.533867,25.7561331 C81.593274,23.8155407 80.517489,21.1742196 80.55,18.43 Z M98.25,18.43 L98.25,18.35 C98.314562,16.335733 97.569007,14.3796437 96.180129,12.9193493 C94.791252,11.4590549 92.874972,10.6164347 90.86,10.58 C86.55,10.58 83.59,14.08 83.59,18.28 L83.59,18.36 C83.517153,20.3659198 84.255731,22.3165616 85.63886,23.7712001 C87.02199,25.2258386 88.932957,26.0617249 90.94,26.09 C92.93821,26.0837332 94.847496,25.2630636 96.22704,23.8174685 C97.606583,22.3718734 98.337126,20.42632 98.25,18.43 Z" id="Shape"></path>
                <path d="M122.91,27 C122.91,27.8063357 122.256336,28.46 121.45,28.46 C120.643664,28.46 119.99,27.8063357 119.99,27 L119.99,24.84 C118.619335,27.3014986 115.99653,28.799694 113.18,28.73 C108.37,28.73 105.56,25.5 105.56,20.73 L105.56,9.73 C105.546364,9.3351062 105.694473,8.9517506 105.970071,8.6686023 C106.245669,8.385454 106.624882,8.2270396 107.02,8.23 C107.848427,8.23 108.52,8.9015729 108.52,9.73 L108.52,20 C108.52,23.69 110.52,26 114.02,26 C115.663702,26.039537 117.24864,25.3878985 118.389183,24.2036349 C119.529725,23.0193714 120.121311,21.4110527 120.02,19.77 L120.02,9.7 C120.006364,9.3051062 120.154473,8.9217506 120.430071,8.6386023 C120.705669,8.355454 121.084882,8.1970396 121.48,8.2 C121.873385,8.202594 122.249317,8.3627566 122.523704,8.6446613 C122.798091,8.926566 122.948037,9.3066884 122.94,9.7 L122.91,27 Z" id="Shape"></path>
                <path d="M147.73,27 C147.73,27.8284271 147.058427,28.5 146.23,28.5 C145.401573,28.5 144.73,27.8284271 144.73,27 L144.73,24.31 C143.11,26.7 140.73,28.73 137.11,28.73 C132.34,28.73 127.61,24.96 127.61,18.42 L127.61,18.34 C127.61,11.84 132.34,7.99 137.11,7.99 C140.208846,7.9941262 143.087613,9.5921822 144.73,12.22 L144.73,1.5 C144.716364,1.1051062 144.864473,0.7217506 145.140071,0.4386023 C145.415669,0.155454 145.794882,-0.0029604 146.19,-4.59086436e-15 C146.589466,-0.0054357 146.974164,0.1508535 147.256655,0.433345 C147.539147,0.7158364 147.695436,1.1005337 147.69,1.5 L147.73,27 Z M130.73,18.3 L130.73,18.38 C130.73,23.08 134,26.08 137.73,26.08 C139.70629,26.0174731 141.576144,25.1697848 142.925611,23.7245968 C144.275079,22.2794088 144.992842,20.3559367 144.92,18.38 L144.92,18.3 C144.992787,16.3279374 144.273804,14.40868 142.923236,12.9698278 C141.572669,11.5309755 139.702718,10.6920647 137.73,10.64 C133.84,10.62 130.69,13.47 130.69,18.28 L130.73,18.3 Z" id="Shape"></path>
                <path d="M160.81,25 C160.437294,24.7371102 160.219854,24.3059804 160.23,23.85 C160.221963,23.4566884 160.371909,23.076566 160.646296,22.7946613 C160.920683,22.5127566 161.296615,22.352594 161.69,22.35 C162.029786,22.3467246 162.358311,22.4717066 162.61,22.7 C164.930172,24.8127777 167.972668,25.9546083 171.11,25.89 C174.73,25.89 177.11,23.97 177.11,21.31 L177.11,21.23 C177.11,18.73 175.76,17.31 170.11,16.11 C163.91,14.76 161.11,12.76 161.11,8.34 L161.11,8.26 C161.11,4.03 164.84,0.91 169.96,0.91 C173.036081,0.8074322 176.057525,1.7406289 178.54,3.56 C178.937609,3.8453434 179.178265,4.3007394 179.19,4.79 C179.19,5.5963357 178.536336,6.25 177.73,6.25 C177.414824,6.2602079 177.105217,6.1652147 176.85,5.98 C174.846766,4.4328218 172.381024,3.605037 169.85,3.63 C166.35,3.63 164.12,5.55 164.12,7.98 L164.12,8.06 C164.12,10.6 165.5,12.06 171.43,13.29 C177.36,14.52 180.2,16.79 180.2,20.91 L180.2,21 C180.2,25.62 176.35,28.62 171,28.62 C167.282408,28.6546282 163.672556,27.3722274 160.81,25 Z" id="Shape"></path>
                <path d="M193.83,28.74 C188.37,28.74 183.9,24.55 183.9,18.39 L183.9,18.31 C183.9,12.58 187.9,7.96 193.44,7.96 C199.33,7.96 202.68,12.77 202.68,18.04 C202.68001,18.407738 202.533245,18.7602704 202.272278,19.01936 C202.011311,19.2784496 201.657728,19.4226648 201.29,19.42 L186.9,19.42 C187.32,23.73 190.36,26.15 193.9,26.15 C196.039554,26.1639901 198.098377,25.3339934 199.63,23.84 C200.000727,23.4963709 200.538964,23.4031053 201.003693,23.6019664 C201.468423,23.8008275 201.772593,24.2545649 201.78,24.76 C201.785138,25.1456089 201.616146,25.5129816 201.32,25.76 C199.344436,27.7487589 196.631834,28.8280051 193.83,28.74 Z M199.72,17.23 C199.41,13.61 197.33,10.46 193.37,10.46 C189.91,10.46 187.29,13.35 186.91,17.23 L199.72,17.23 Z" id="Shape"></path>
                <path d="M207.14,9.7 C207.134364,8.8847844 207.78493,8.2163946 208.6,8.2 C208.999466,8.1945643 209.384164,8.3508535 209.666655,8.633345 C209.949147,8.9158364 210.105436,9.3005337 210.1,9.7 L210.1,13.43 C211.56,10.12 214.45,8.12 216.95,8.12 C217.347784,8.1081478 217.732286,8.2637607 218.009859,8.5489377 C218.287431,8.8341147 218.432597,9.2226818 218.41,9.62 C218.430127,10.3846857 217.860435,11.0370049 217.1,11.12 C213.25,11.58 210.1,14.47 210.1,20.2 L210.1,27 C210.1,27.8284271 209.428427,28.5 208.6,28.5 C207.771573,28.5 207.1,27.8284271 207.1,27 L207.14,9.7 Z" id="Shape"></path>
                <path d="M230,28.59 L229.85,28.59 C229.075426,28.5648122 228.399667,28.056993 228.16,27.32 L220.7,10.47 C220.600323,10.209836 220.536407,9.9373506 220.51,9.66 C220.527487,8.894469 221.111694,8.2614693 221.873369,8.1827628 C222.635044,8.1040564 223.336344,8.6042204 223.51,9.35 L229.94,24.9 L236.48,9.28 C236.637413,8.6416047 237.212505,8.1947705 237.87,8.2 C238.676336,8.2 239.33,8.8536643 239.33,9.66 C239.324798,9.9104292 239.273966,10.1578099 239.18,10.39 L231.68,27.32 C231.454623,28.0628322 230.776139,28.5757338 230,28.59 Z" id="Shape"></path>
                <path d="M243.66,2.15 C243.755751,1.2556095 244.510499,0.5773499 245.41,0.5773499 C246.309501,0.5773499 247.064249,1.2556095 247.16,2.15 L247.16,2.65 C247.064249,3.5443905 246.309501,4.2226501 245.41,4.2226501 C244.510499,4.2226501 243.755751,3.5443905 243.66,2.65 L243.66,2.15 Z M243.93,9.69 C243.924364,8.8747844 244.57493,8.2063946 245.39,8.19 C245.789466,8.1845643 246.174164,8.3408535 246.456655,8.623345 C246.739147,8.9058364 246.895436,9.2905337 246.89,9.69 L246.89,27 C246.903636,27.3948938 246.755527,27.7782494 246.479929,28.0613977 C246.204331,28.344546 245.825118,28.5029604 245.43,28.5 C245.030534,28.5054357 244.645836,28.3491465 244.363345,28.066655 C244.080853,27.7841636 243.924564,27.3994663 243.93,27 L243.93,9.69 Z" id="Shape"></path>
                <path d="M251.78,18.43 L251.78,18.35 C251.759974,14.194867 254.229167,10.4313808 258.04872,8.7953646 C261.868272,7.1593484 266.296113,7.968651 269.29,10.85 C269.574405,11.105834 269.740804,11.4675698 269.75,11.85 C269.75,12.6342443 269.114244,13.27 268.33,13.27 C267.965763,13.2752764 267.611447,13.151266 267.33,12.92 C265.913855,11.4272332 263.957309,10.5660649 261.9,10.53 C257.9,10.53 254.78,13.95 254.78,18.23 L254.78,18.31 C254.69889,20.3113437 255.429254,22.2606614 256.805492,23.7159711 C258.181729,25.1712808 260.087249,26.0092932 262.09,26.04 C264.182111,25.9889921 266.170941,25.1202251 267.63,23.62 C267.8468,23.3774923 268.154771,23.2361876 268.48,23.23 C269.216748,23.2509132 269.809087,23.8432519 269.83,24.58 C269.826157,24.9240823 269.690093,25.2534994 269.45,25.5 C267.516401,27.5800895 264.789557,28.7399073 261.95,28.69 C259.240393,28.679417 256.64612,27.5921822 254.738583,25.6677641 C252.831046,23.7433461 251.76671,21.1395952 251.78,18.43 Z" id="Shape"></path>
                <path d="M282.33,28.74 C276.87,28.74 272.4,24.55 272.4,18.39 L272.4,18.31 C272.4,12.58 276.4,7.96 281.94,7.96 C287.83,7.96 291.18,12.77 291.18,18.04 C291.18001,18.407738 291.033245,18.7602704 290.772278,19.01936 C290.511311,19.2784496 290.157728,19.4226648 289.79,19.42 L275.4,19.42 C275.82,23.73 278.86,26.15 282.4,26.15 C284.539554,26.1639901 286.598377,25.3339934 288.13,23.84 C288.500727,23.4963709 289.038964,23.4031053 289.503693,23.6019664 C289.968423,23.8008275 290.272593,24.2545649 290.28,24.76 C290.285138,25.1456089 290.116146,25.5129816 289.82,25.76 C287.844436,27.7487589 285.131834,28.8280051 282.33,28.74 Z M288.22,17.23 C287.91,13.61 285.83,10.46 281.87,10.46 C278.41,10.46 275.79,13.35 275.41,17.23 L288.22,17.23 Z" id="Shape"></path>
                <path d="M294.57,26.17 C294.22881,25.9160933 294.028412,25.5152958 294.03,25.09 C294.035263,24.7478575 294.176248,24.421824 294.42193,24.183644 C294.667611,23.945464 294.997859,23.8146544 295.34,23.82 C295.602022,23.8141871 295.858634,23.8950374 296.07,24.05 C297.908994,25.3815357 300.11009,26.1210481 302.38,26.17 C304.77,26.17 306.5,24.94 306.5,23.01 L306.5,22.93 C306.5,20.93 304.15,20.16 301.5,19.43 C298.38,18.55 294.92,17.43 294.92,13.81 L294.92,13.73 C294.92,10.31 297.77,8.04 301.69,8.04 C303.911534,8.0861778 306.089404,8.6657998 308.04,9.73 C308.484147,9.9816272 308.761882,10.4495911 308.77,10.96 C308.764737,11.3021425 308.623752,11.628176 308.37807,11.866356 C308.132389,12.104536 307.802141,12.2353456 307.46,12.23 C307.234781,12.2297675 307.012546,12.1784823 306.81,12.08 C305.239339,11.1331459 303.452902,10.6030665 301.62,10.54 C299.27,10.54 297.77,11.77 297.77,13.43 L297.77,13.51 C297.77,15.4 300.23,16.13 302.89,16.94 C305.97,17.86 309.28,19.06 309.28,22.63 L309.28,22.71 C309.28,26.48 306.16,28.71 302.2,28.71 C299.460589,28.64139 296.803944,27.7570023 294.57,26.17 Z" id="Shape"></path>
            </g>
            <path d="M105.328174,58.2094542 C107.068728,53.4722455 107.870467,48.4811245 107.711238,43.3730883 C107.401757,33.4596749 103.336156,24.0752197 96.261602,16.9463079 C89.187168,9.81713492 79.8345745,5.68176081 69.9248053,5.29980051 C59.1036524,4.88192691 48.8586866,8.77616134 41.0756404,16.265064 C39.5786973,17.705424 38.2058671,19.246181 36.9654352,20.8759999 C45.0507728,21.5953402 52.5411842,25.1177841 58.2955311,30.9331203 C64.7037607,37.4082839 68.2339539,45.9949597 68.2339539,55.1061532 C68.2339539,56.080976 68.1929841,57.0637535 68.1119406,58.0279727 C68.0951244,58.2263674 68.1695432,58.3936167 68.2925221,58.5271471 C68.4398154,58.6869859 68.6626034,58.7825135 68.8876681,58.7867734 L104.658092,58.6642051 C104.960204,58.6630476 105.229462,58.4778633 105.328174,58.2094542 Z M105.328174,58.2094542 C105.328181,58.2094371 105.328187,58.20942 105.328193,58.2094029 L105.328155,58.2095056 C105.328162,58.2094885 105.328168,58.2094713 105.328174,58.2094542 Z M25.1808588,57.7924148 C23.8876944,53.5434146 23.2320791,49.1166386 23.2320791,44.6347023 C23.2320791,38.6658213 24.3743673,32.8558363 26.5938491,27.4558258 C21.8724292,28.7111011 17.5357905,31.1823657 13.9423424,34.6874532 C8.44832695,40.0467663 5.36989765,47.1608157 5.2713175,54.7234853 C5.25635291,55.8730732 5.30968172,57.0297867 5.43257321,58.2140967 C5.43257321,58.2140967 5.43257321,58.2140967 5.429804,58.1619366 C5.46952734,58.5377985 5.77435263,58.8171313 6.14145929,58.8206963 C6.14464311,58.8205949 6.14826534,58.8204806 6.15240448,58.8203501 L24.5071077,58.7055893 C24.7660595,58.703868 24.9474852,58.5899405 25.0746631,58.4167882 C25.2012467,58.2453116 25.2558782,58.0393266 25.1808588,57.7924148 Z M6.11910832,58.8215913 C6.11631451,58.8217298 6.1147274,58.8218796 6.11209609,58.8221278 C6.11501846,58.8218291 6.11674889,58.8216522 6.12002239,58.8214765 Z M25.1808588,57.7924148 C25.1808498,57.7923854 25.1808409,57.7923559 25.1808319,57.7923265 L25.1808857,57.7925031 C25.1808767,57.7924737 25.1808677,57.7924443 25.1808588,57.7924148 Z M33.3905923,26.5123412 C30.5033142,32.0652419 29.0009494,38.2402542 29.0009494,44.6347023 C29.0009494,48.4950657 29.5579801,52.3076357 30.6563974,55.9683844 C31.5718091,59.0193097 30.3801097,62.2084951 27.5144494,63.7136701 C26.5584766,64.2159332 25.4588648,64.4690312 24.3055111,64.4760001 L6.18597769,64.5896009 C6.17626781,64.5896009 6.17626781,64.5896009 6.16646034,64.5896009 C6.15665286,64.5896009 6.15665286,64.5896009 6.14694298,64.5896009 C2.81566389,64.5896009 0.0450017165,62.0920293 -0.307363892,58.769906 C-0.451108346,57.4124515 -0.51490316,56.0261104 -0.497077771,54.648406 C-0.378630347,45.5461771 3.31962821,36.9892754 9.91402462,30.55764 C15.4290875,25.1781006 22.4019315,21.8403465 29.9065797,20.9679705 C31.8962364,17.7516197 34.2991011,14.7791173 37.0752595,12.1078573 C45.9969294,3.52324143 57.7465337,-0.943549442 70.1468135,-0.465203883 C93.7098081,0.442704842 112.741478,19.6183245 113.47728,43.1927758 L113.477279,43.1927641 C113.659975,49.0418077 112.740165,54.7637918 110.743701,60.1988968 C109.816175,62.7236622 107.379717,64.4241536 104.677719,64.4334592 L68.9057759,64.5556407 C68.8956269,64.5556407 68.8956269,64.5556407 68.8850875,64.5556407 C67.0530568,64.5556407 65.2937152,63.7850834 64.0511682,62.438181 C62.8276306,61.111377 62.2122597,59.328214 62.3630014,57.5434496 C62.4304852,56.7390121 62.4646933,55.9187918 62.4646933,55.1061532 C62.4646933,47.522848 59.5284175,40.3806343 54.1949748,34.9911752 C48.8651525,29.6053344 41.7627683,26.5940658 34.1911049,26.5100385 C33.9256173,26.5069644 33.6582854,26.5077473 33.3905923,26.5123412 Z" id="Fill-1" stroke="#4D4D4F"></path>
        </g>
    </g>
</svg>